<?xml version="1.0" encoding="utf-8"?>
<!-- Generator: Adobe Illustrator 23.0.4, SVG Export Plug-In . SVG Version: 6.00 Build 0)  -->
<svg version="1.1" id="Laag_1" xmlns="http://www.w3.org/2000/svg" xmlns:xlink="http://www.w3.org/1999/xlink" x="0px" y="0px"
	 viewBox="0 0 120 120" style="enable-background:new 0 0 120 120;" xml:space="preserve">
<style type="text/css">
	.st0{fill:#FFFFFF;}
</style>
<g id="_x33_d1SsF_1_">
	<g>
		<path class="st0" d="M83,26.9c-3.4,0-6.5,0-9.6,0c-4.1-0.1-6.2,1.8-6.1,6c0.1,3,0,5.9,0,9.3c5.4,0,10.4,0,16.1,0
			c-0.6,6.2-1.2,11.9-1.8,18c-4.8,0-9.2,0-14,0c0,16.9,0,33.3,0,50.1c-7.1,0-13.9,0-21.2,0c0-16.4,0-33,0-49.7
			c-3.5-0.2-6.5-0.3-9.7-0.4c0-5.9,0-11.6,0-17.7c3-0.1,6-0.3,9.6-0.4c0-3.7,0-7.3,0-10.9c0.2-14.1,7.6-21.6,21.6-21.6
			c4.9,0,9.9,0,15.3,0c0,4.5,0,8.4,0,12.4C83.2,23.5,83.1,24.9,83,26.9z"/>
	</g>
</g>
</svg>
